<?xml version="1.0" encoding="UTF-8" standalone="no"?>
<svg
   width="456"
   height="456"
   viewBox="0 0 456 456"
   version="1.1"
   xml:space="preserve"
   style="fill-rule:evenodd;clip-rule:evenodd;stroke-linejoin:round;stroke-miterlimit:2;"
   id="svg4"
   sodipodi:docname="splash-nassau.svg"
   inkscape:version="1.3 (0e150ed6c4, 2023-07-21)"
   xmlns:inkscape="http://www.inkscape.org/namespaces/inkscape"
   xmlns:sodipodi="http://sodipodi.sourceforge.net/DTD/sodipodi-0.dtd"
   xmlns="http://www.w3.org/2000/svg"
   xmlns:svg="http://www.w3.org/2000/svg"><defs
   id="defs4" /><sodipodi:namedview
   id="namedview4"
   pagecolor="#505050"
   bordercolor="#eeeeee"
   borderopacity="1"
   inkscape:showpageshadow="0"
   inkscape:pageopacity="0"
   inkscape:pagecheckerboard="0"
   inkscape:deskcolor="#505050"
   inkscape:zoom="1.7828947"
   inkscape:cx="271.74908"
   inkscape:cy="228"
   inkscape:window-width="1920"
   inkscape:window-height="1009"
   inkscape:window-x="1912"
   inkscape:window-y="-8"
   inkscape:window-maximized="1"
   inkscape:current-layer="svg4" />&#10;    &#10;    &#10;    &#10;    &#10;<path
   style="font-size:64px;font-family:GentiumAlt;-inkscape-font-specification:GentiumAlt;fill:#eeeeff;stroke-width:1.00157"
   d="m 55.328125,410.00739 v -1.34375 q 2.25,-0.59375 3.3125,-1.03125 1.0625,-0.4375 1.0625,-0.875 v -16.53125 q 0,-1.90625 -0.21875,-3.09375 -0.21875,-1.1875 -0.6875,-1.875 -0.46875,-0.6875 -1.25,-0.9375 -0.75,-0.25 -1.84375,-0.25 -0.96875,0 -2.15625,0.46875 -1.1875,0.46875 -2.5625,1.5 -1.34375,1.03125 -2.84375,2.71875 -1.46875,1.65625 -2.96875,4.09375 v 13.90625 q 0,0.46875 1.15625,0.96875 1.1875,0.5 3.21875,0.9375 v 1.34375 h -13.4375 v -1.34375 q 2.0625,-0.53125 3.21875,-0.9375 1.15625,-0.4375 1.15625,-0.96875 v -18.96875 q 0,-1.21875 -0.09375,-1.9375 -0.09375,-0.71875 -0.53125,-1.125 -0.40625,-0.40625 -1.28125,-0.59375 -0.875,-0.1875 -2.46875,-0.375 v -1.25 q 2.125,-0.34375 3.9375,-0.96875 1.8125,-0.65625 3.5625,-1.53125 l 1.09375,1.09375 0.34375,7.78125 q 1.375,-2.09375 3.03125,-3.71875 1.65625,-1.65625 3.34375,-2.78125 1.6875,-1.15625 3.25,-1.75 1.59375,-0.625 2.8125,-0.625 1.34375,0 2.59375,0.40625 1.25,0.40625 2.1875,1.25 0.96875,0.84375 1.53125,2.15625 0.59375,1.28125 0.59375,3.03125 v 19.90625 q 0,0.4375 0.9375,0.875 0.96875,0.40625 3.4375,1.03125 v 1.34375 z m 25.375,-3.125 q 1.875,0 3.96875,-0.9375 2.125,-0.96875 4.5,-3.03125 v -8.15625 l -3.71875,0.71875 q -2.125,0.375 -3.6875,1.09375 -1.53125,0.71875 -2.53125,1.6875 -1,0.96875 -1.46875,2.15625 -0.46875,1.15625 -0.46875,2.4375 0,1.25 0.375,2.03125 0.375,0.78125 0.90625,1.25 0.5625,0.4375 1.125,0.59375 0.59375,0.15625 1,0.15625 z m 17.9375,0.5625 q -2.65625,1.84375 -4.40625,2.65625 -1.71875,0.84375 -2.59375,0.84375 -1.03125,0 -1.71875,-1.4375 -0.6875,-1.4375 -0.75,-3.96875 -1.40625,1.40625 -2.8125,2.4375 -1.40625,1.03125 -2.75,1.6875 -1.34375,0.65625 -2.5625,0.96875 -1.1875,0.3125 -2.1875,0.3125 -1.125,0 -2.3125,-0.375 -1.1875,-0.375 -2.15625,-1.1875 -0.9375,-0.8125 -1.5625,-2.09375 -0.625,-1.28125 -0.625,-3.09375 0,-1.84375 0.65625,-3.5 0.6875,-1.6875 2,-3.0625 1.34375,-1.375 3.3125,-2.375 1.96875,-1.03125 4.59375,-1.5625 l 6.40625,-1.28125 v -4.34375 q 0,-1.0625 -0.25,-1.96875 -0.25,-0.9375 -0.84375,-1.59375 -0.59375,-0.6875 -1.625,-1.03125 -1,-0.375 -2.53125,-0.34375 -1,0.0312 -1.96875,0.34375 -0.96875,0.3125 -1.6875,0.875 -0.71875,0.5625 -1.125,1.34375 -0.40625,0.75 -0.3125,1.6875 0.03125,0.28125 -0.65625,0.65625 -0.65625,0.34375 -1.59375,0.625 -0.90625,0.28125 -1.8125,0.4375 -0.875,0.15625 -1.25,0.0625 l -0.4375,-1.21875 q 0.71875,-1.5625 2.1875,-3 1.46875,-1.4375 3.34375,-2.53125 1.90625,-1.09375 4,-1.75 2.125,-0.65625 4.09375,-0.65625 3.4375,0 5.28125,1.8125 1.875,1.78125 1.875,5 v 17.625 q 0,1.3125 0.34375,1.875 0.34375,0.5625 0.90625,0.5625 0.4375,0 1.125,-0.15625 0.6875,-0.15625 1.9375,-0.6875 l 0.46875,1.40625 z m 22.312505,-6.28125 q 0,2.21875 -0.625,3.8125 -0.625,1.5625 -1.625,2.65625 -1,1.09375 -2.21875,1.75 -1.21875,0.65625 -2.40625,1 -1.1875,0.34375 -2.25,0.4375 -1.03125,0.125 -1.625,0.125 -1.5,0 -3.625,-0.5625 -2.09375,-0.5625 -4.1875,-1.71875 -0.21875,-0.0937 -0.3125,-1 -0.0625,-0.9375 -0.0312,-2.125 0.0625,-1.21875 0.1875,-2.4375 0.15625,-1.21875 0.375,-1.9375 l 1.34375,0.34375 q 0.0625,1.3125 0.6875,2.46875 0.625,1.15625 1.65625,2.03125 1.0625,0.875 2.4375,1.375 1.40625,0.5 3.03125,0.5 1.125,0 2.0625,-0.34375 0.9375,-0.375 1.625,-1.03125 0.6875,-0.65625 1.0625,-1.5625 0.375,-0.9375 0.375,-2.03125 0,-1.25 -0.6875,-2.21875 -0.65625,-0.96875 -1.75,-1.75 -1.09375,-0.8125 -2.5,-1.5 -1.375,-0.71875 -2.8125,-1.46875 -1.3125,-0.65625 -2.53125,-1.40625 -1.21875,-0.75 -2.1875,-1.6875 -0.9375,-0.9375 -1.53125,-2.09375 -0.5625,-1.15625 -0.5625,-2.65625 0,-1.9375 0.78125,-3.4375 0.78125,-1.53125 2.0625,-2.5625 1.3125,-1.03125 2.96875,-1.5625 1.6875,-0.5625 3.46875,-0.5625 0.96875,0 2.125,0.1875 1.1875,0.15625 2.3125,0.46875 1.15625,0.3125 2.15625,0.75 1,0.4375 1.625,1 0.1875,0.1875 0.0312,0.84375 -0.125,0.65625 -0.4375,1.4375 -0.28125,0.78125 -0.625,1.46875 -0.34375,0.6875 -0.53125,0.9375 l -1.21875,-0.25 q -1.5,-2.25 -3.125,-3.125 -1.59375,-0.90625 -3.125,-0.90625 -1.03125,0 -1.84375,0.34375 -0.8125,0.34375 -1.40625,0.90625 -0.5625,0.53125 -0.875,1.1875 -0.28125,0.65625 -0.28125,1.3125 0,1 0.59375,1.8125 0.59375,0.78125 1.5625,1.5 0.96875,0.6875 2.1875,1.34375 1.25,0.625 2.5625,1.3125 1.34375,0.6875 2.71875,1.46875 1.375,0.78125 2.46875,1.8125 1.09375,1 1.78125,2.3125 0.6875,1.28125 0.6875,3.03125 z m 24.71874,0 q 0,2.21875 -0.625,3.8125 -0.625,1.5625 -1.625,2.65625 -1,1.09375 -2.21875,1.75 -1.21875,0.65625 -2.40625,1 -1.1875,0.34375 -2.25,0.4375 -1.03125,0.125 -1.625,0.125 -1.5,0 -3.625,-0.5625 -2.09375,-0.5625 -4.18749,-1.71875 -0.21875,-0.0937 -0.3125,-1 -0.0625,-0.9375 -0.0312,-2.125 0.0625,-1.21875 0.1875,-2.4375 0.15625,-1.21875 0.375,-1.9375 l 1.34374,0.34375 q 0.0625,1.3125 0.6875,2.46875 0.625,1.15625 1.65625,2.03125 1.0625,0.875 2.4375,1.375 1.40625,0.5 3.03125,0.5 1.125,0 2.0625,-0.34375 0.9375,-0.375 1.625,-1.03125 0.6875,-0.65625 1.0625,-1.5625 0.375,-0.9375 0.375,-2.03125 0,-1.25 -0.6875,-2.21875 -0.65625,-0.96875 -1.75,-1.75 -1.09375,-0.8125 -2.5,-1.5 -1.375,-0.71875 -2.8125,-1.46875 -1.3125,-0.65625 -2.53125,-1.40625 -1.21875,-0.75 -2.1875,-1.6875 -0.9375,-0.9375 -1.53124,-2.09375 -0.5625,-1.15625 -0.5625,-2.65625 0,-1.9375 0.78125,-3.4375 0.78124,-1.53125 2.06249,-2.5625 1.3125,-1.03125 2.96875,-1.5625 1.6875,-0.5625 3.46875,-0.5625 0.96875,0 2.125,0.1875 1.1875,0.15625 2.3125,0.46875 1.15625,0.3125 2.15625,0.75 1,0.4375 1.625,1 0.1875,0.1875 0.0312,0.84375 -0.125,0.65625 -0.4375,1.4375 -0.28125,0.78125 -0.625,1.46875 -0.34375,0.6875 -0.53125,0.9375 l -1.21875,-0.25 q -1.5,-2.25 -3.125,-3.125 -1.59375,-0.90625 -3.125,-0.90625 -1.03125,0 -1.84375,0.34375 -0.8125,0.34375 -1.40625,0.90625 -0.5625,0.53125 -0.875,1.1875 -0.28125,0.65625 -0.28125,1.3125 0,1 0.59375,1.8125 0.59375,0.78125 1.5625,1.5 0.96875,0.6875 2.1875,1.34375 1.25,0.625 2.5625,1.3125 1.34375,0.6875 2.71875,1.46875 1.375,0.78125 2.46875,1.8125 1.09375,1 1.78125,2.3125 0.6875,1.28125 0.6875,3.03125 z m 13.84375,5.71875 q 1.875,0 3.96875,-0.9375 2.125,-0.96875 4.5,-3.03125 v -8.15625 l -3.71875,0.71875 q -2.125,0.375 -3.6875,1.09375 -1.53125,0.71875 -2.53125,1.6875 -1,0.96875 -1.46875,2.15625 -0.46875,1.15625 -0.46875,2.4375 0,1.25 0.375,2.03125 0.375,0.78125 0.90625,1.25 0.5625,0.4375 1.125,0.59375 0.59375,0.15625 1,0.15625 z m 17.9375,0.5625 q -2.65625,1.84375 -4.40625,2.65625 -1.71875,0.84375 -2.59375,0.84375 -1.03125,0 -1.71875,-1.4375 -0.6875,-1.4375 -0.75,-3.96875 -1.40625,1.40625 -2.8125,2.4375 -1.40625,1.03125 -2.75,1.6875 -1.34375,0.65625 -2.5625,0.96875 -1.1875,0.3125 -2.1875,0.3125 -1.125,0 -2.3125,-0.375 -1.1875,-0.375 -2.15625,-1.1875 -0.9375,-0.8125 -1.5625,-2.09375 -0.625,-1.28125 -0.625,-3.09375 0,-1.84375 0.65625,-3.5 0.6875,-1.6875 2,-3.0625 1.34375,-1.375 3.3125,-2.375 1.96875,-1.03125 4.59375,-1.5625 l 6.40625,-1.28125 v -4.34375 q 0,-1.0625 -0.25,-1.96875 -0.25,-0.9375 -0.84375,-1.59375 -0.59375,-0.6875 -1.625,-1.03125 -1,-0.375 -2.53125,-0.34375 -1,0.0312 -1.96875,0.34375 -0.96875,0.3125 -1.6875,0.875 -0.71875,0.5625 -1.125,1.34375 -0.40625,0.75 -0.3125,1.6875 0.0312,0.28125 -0.65625,0.65625 -0.65625,0.34375 -1.59375,0.625 -0.90625,0.28125 -1.8125,0.4375 -0.875,0.15625 -1.25,0.0625 l -0.4375,-1.21875 q 0.71875,-1.5625 2.1875,-3 1.46875,-1.4375 3.34375,-2.53125 1.90625,-1.09375 4,-1.75 2.125,-0.65625 4.09375,-0.65625 3.4375,0 5.28125,1.8125 1.875,1.78125 1.875,5 v 17.625 q 0,1.3125 0.34375,1.875 0.34375,0.5625 0.90625,0.5625 0.4375,0 1.125,-0.15625 0.6875,-0.15625 1.9375,-0.6875 l 0.46875,1.40625 z m 33.84375,0 q -1.15625,0.75 -2.21875,1.40625 -1.0625,0.625 -1.96875,1.09375 -0.90625,0.46875 -1.59375,0.71875 -0.6875,0.28125 -1.0625,0.28125 -1.09375,0 -1.78125,-1.4375 -0.6875,-1.46875 -0.875,-4.6875 -1.9375,1.9375 -3.5625,3.15625 -1.59375,1.1875 -2.96875,1.84375 -1.34375,0.65625 -2.5,0.875 -1.125,0.25 -2.125,0.25 -1.46875,0 -2.8125,-0.40625 -1.34375,-0.40625 -2.375,-1.46875 -1.03125,-1.09375 -1.65625,-2.96875 -0.59375,-1.875 -0.59375,-4.8125 v -13.5 q 0,-1.5 -0.0937,-2.3125 -0.0937,-0.84375 -0.5,-1.25 -0.375,-0.4375 -1.1875,-0.59375 -0.8125,-0.15625 -2.25,-0.3125 v -1.25 q 1.125,-0.125 2.09375,-0.3125 1,-0.1875 1.90625,-0.4375 0.9375,-0.25 1.875,-0.5625 0.9375,-0.34375 1.96875,-0.75 l 0.875,1.21875 v 18.34375 q 0,2.1875 0.3125,3.65625 0.34375,1.46875 0.9375,2.34375 0.625,0.875 1.5,1.25 0.90625,0.375 2.03125,0.375 1,0 2.03125,-0.28125 1.0625,-0.3125 2.15625,-0.9375 1.125,-0.65625 2.34375,-1.65625 1.21875,-1.03125 2.59375,-2.5 v -14.03125 q 0,-1.40625 -0.15625,-2.25 -0.125,-0.84375 -0.59375,-1.3125 -0.46875,-0.46875 -1.34375,-0.65625 -0.84375,-0.1875 -2.28125,-0.25 v -1.25 q 2.25,-0.28125 4.3125,-0.875 2.0625,-0.59375 3.8125,-1.1875 l 0.9375,1.21875 v 20.84375 q 0,1.9375 0.125,3.15625 0.15625,1.21875 0.59375,1.53125 0.375,0.25 1.28125,0.125 0.90625,-0.15625 2.5,-0.84375 l 0.3125,1.40625 z m 38.65625,-26.28125 q 0.28125,0.1875 0.25,1.09375 0,0.90625 -0.25,2.09375 -0.21875,1.1875 -0.59375,2.4375 -0.375,1.25 -0.75,2.09375 h -1.34375 q -0.1875,-1.25 -0.53125,-2.125 -0.34375,-0.875 -0.8125,-1.375 -0.4375,-0.53125 -1,-0.75 -0.53125,-0.25 -1.125,-0.25 -0.6875,0 -1.625,0.59375 -0.90625,0.5625 -1.875,1.8125 -0.96875,1.21875 -1.9375,3.15625 -0.9375,1.90625 -1.6875,4.5625 v 12.25 q 0,0.46875 1.15625,0.96875 1.1875,0.5 4.125,0.9375 v 1.34375 h -14.34375 v -1.34375 q 2.0625,-0.46875 3.21875,-0.90625 1.15625,-0.46875 1.15625,-1 v -18.1875 q 0,-1.03125 -0.0625,-1.71875 -0.0625,-0.71875 -0.15625,-1.15625 -0.0937,-0.4375 -0.25,-0.6875 -0.125,-0.25 -0.25,-0.40625 -0.21875,-0.21875 -0.5,-0.34375 -0.25,-0.15625 -0.6875,-0.25 -0.40625,-0.0937 -1,-0.125 -0.59375,-0.0625 -1.46875,-0.125 v -1.25 q 2.03125,-0.53125 3.96875,-1.0625 1.96875,-0.5625 3.53125,-1.4375 l 1.09375,1.09375 0.40625,7.09375 q 0.84375,-1.71875 1.8125,-3.21875 1,-1.5 2.125,-2.59375 1.125,-1.125 2.34375,-1.75 1.25,-0.625 2.59375,-0.625 1,0 2.15625,0.25 1.15625,0.25 2.3125,0.90625 z m 15.84375,2.09375 q -1.59375,0 -2.9375,0.625 -1.34375,0.625 -2.40625,1.75 -1.03125,1.125 -1.75,2.71875 -0.6875,1.59375 -1,3.53125 h 13.34375 q 0.71875,0 0.9375,-0.21875 0.25,-0.25 0.25,-0.90625 0,-0.5625 -0.0937,-1.34375 -0.0937,-0.78125 -0.375,-1.59375 -0.25,-0.84375 -0.71875,-1.65625 -0.4375,-0.8125 -1.15625,-1.4375 -0.71875,-0.65625 -1.75,-1.0625 -1,-0.40625 -2.34375,-0.40625 z m 11.5625,9.34375 q -0.5625,0.625 -1.5,1.15625 -0.9375,0.53125 -1.9375,0.9375 h -16.4375 v 0.0937 q 0,2.34375 0.625,4.53125 0.65625,2.15625 1.84375,3.84375 1.1875,1.65625 2.90625,2.65625 1.71875,1 3.875,1 0.96875,0 1.875,-0.0937 0.9375,-0.125 2,-0.53125 1.0625,-0.4375 2.34375,-1.28125 1.3125,-0.84375 3.0625,-2.28125 0.40625,0.21875 0.6875,0.625 0.3125,0.40625 0.46875,0.65625 -2.09375,2.28125 -3.6875,3.6875 -1.5625,1.375 -2.96875,2.125 -1.375,0.75 -2.75,0.96875 -1.34375,0.25 -2.9375,0.25 -2.40625,0 -4.59375,-1.03125 -2.15625,-1.03125 -3.8125,-2.90625 -1.65625,-1.90625 -2.65625,-4.5625 -0.96875,-2.6875 -0.96875,-6 0,-2.09375 0.46875,-4.125 0.46875,-2.03125 1.34375,-3.84375 0.90625,-1.8125 2.1875,-3.34375 1.28125,-1.53125 2.90625,-2.65625 0.6875,-0.46875 1.53125,-0.90625 0.875,-0.46875 1.8125,-0.8125 0.9375,-0.34375 1.84375,-0.53125 0.9375,-0.21875 1.78125,-0.21875 2.0625,0 3.625,0.5625 1.59375,0.5625 2.78125,1.53125 1.1875,0.9375 2,2.21875 0.8125,1.25 1.3125,2.65625 0.53125,1.40625 0.75,2.875 0.21875,1.4375 0.21875,2.75 z m 28.75,11.46875 q -2.03125,2.40625 -3.59375,3.78125 -1.53125,1.34375 -2.84375,2.0625 -1.3125,0.6875 -2.5625,0.84375 -1.25,0.1875 -2.71875,0.1875 -2.28125,0 -4.46875,-1 -2.15625,-1.03125 -3.84375,-2.9375 -1.6875,-1.90625 -2.71875,-4.65625 -1,-2.75 -1,-6.21875 0,-3.375 1.21875,-6.3125 1.25,-2.9375 3.375,-5.09375 2.15625,-2.1875 5.0625,-3.4375 2.90625,-1.28125 6.28125,-1.28125 1.03125,0 2.09375,0.1875 1.09375,0.15625 2.0625,0.5 1,0.3125 1.8125,0.78125 0.84375,0.4375 1.375,1 0.0625,0.375 -0.0937,1.0625 -0.15625,0.6875 -0.4375,1.46875 -0.28125,0.75 -0.625,1.46875 -0.34375,0.6875 -0.625,1.125 l -1.15625,-0.3125 q -0.25,-0.5625 -0.8125,-1.21875 -0.5625,-0.65625 -1.46875,-1.25 -0.875,-0.59375 -2.125,-0.96875 -1.21875,-0.40625 -2.8125,-0.40625 -1.65625,0 -3.1875,0.75 -1.5,0.71875 -2.6875,2.1875 -1.15625,1.46875 -1.875,3.65625 -0.6875,2.1875 -0.6875,5.125 0,2.65625 0.78125,4.8125 0.8125,2.15625 2.125,3.6875 1.34375,1.5 3.0625,2.34375 1.75,0.8125 3.625,0.8125 0.875,0 1.625,-0.0625 0.75,-0.0937 1.625,-0.46875 0.90625,-0.375 2.0625,-1.1875 1.1875,-0.8125 2.9375,-2.3125 l 1.21875,1.28125 z m 26.625,-8.28125 q 0,-2.46875 -0.8125,-4.6875 -0.8125,-2.25 -2.125,-3.9375 -1.3125,-1.71875 -2.9375,-2.71875 -1.625,-1 -3.21875,-1 -2.375,0 -4,0.90625 -1.625,0.90625 -2.65625,2.5 -1,1.5625 -1.4375,3.71875 -0.4375,2.15625 -0.4375,4.65625 0,2.46875 0.875,4.71875 0.875,2.21875 2.21875,3.90625 1.34375,1.6875 2.9375,2.6875 1.625,0.96875 3.0625,0.96875 2.21875,0 3.8125,-0.8125 1.625,-0.84375 2.65625,-2.375 1.0625,-1.53125 1.5625,-3.6875 0.5,-2.15625 0.5,-4.84375 z m 4.78125,-0.9375 q 0,2.0625 -0.53125,4.09375 -0.53125,2 -1.46875,3.78125 -0.9375,1.78125 -2.25,3.3125 -1.3125,1.5 -2.90625,2.59375 -1.5625,1.09375 -3.34375,1.6875 -1.78125,0.625 -3.6875,0.625 -2.96875,0 -5.375,-1.125 -2.375,-1.125 -4.09375,-3.09375 -1.6875,-1.96875 -2.625,-4.6875 -0.90625,-2.71875 -0.90625,-5.90625 0,-2.0625 0.5,-4.0625 0.53125,-2 1.4375,-3.78125 0.9375,-1.8125 2.21875,-3.3125 1.3125,-1.53125 2.875,-2.625 1.59375,-1.09375 3.40625,-1.71875 1.8125,-0.625 3.78125,-0.625 2.9375,0 5.3125,1.125 2.40625,1.125 4.09375,3.125 1.71875,1.96875 2.625,4.6875 0.9375,2.71875 0.9375,5.90625 z m 26.5625,-13.6875 q 0.28125,0.1875 0.25,1.09375 0,0.90625 -0.25,2.09375 -0.21875,1.1875 -0.59375,2.4375 -0.375,1.25 -0.75,2.09375 h -1.34375 q -0.1875,-1.25 -0.53125,-2.125 -0.34375,-0.875 -0.8125,-1.375 -0.4375,-0.53125 -1,-0.75 -0.53125,-0.25 -1.125,-0.25 -0.6875,0 -1.625,0.59375 -0.90625,0.5625 -1.875,1.8125 -0.96875,1.21875 -1.9375,3.15625 -0.9375,1.90625 -1.6875,4.5625 v 12.25 q 0,0.46875 1.15625,0.96875 1.1875,0.5 4.125,0.9375 v 1.34375 h -14.34375 v -1.34375 q 2.0625,-0.46875 3.21875,-0.90625 1.15625,-0.46875 1.15625,-1 v -18.1875 q 0,-1.03125 -0.0625,-1.71875 -0.0625,-0.71875 -0.15625,-1.15625 -0.0937,-0.4375 -0.25,-0.6875 -0.125,-0.25 -0.25,-0.40625 -0.21875,-0.21875 -0.5,-0.34375 -0.25,-0.15625 -0.6875,-0.25 -0.40625,-0.0937 -1,-0.125 -0.59375,-0.0625 -1.46875,-0.125 v -1.25 q 2.03125,-0.53125 3.96875,-1.0625 1.96875,-0.5625 3.53125,-1.4375 l 1.09375,1.09375 0.40625,7.09375 q 0.84375,-1.71875 1.8125,-3.21875 1,-1.5 2.125,-2.59375 1.125,-1.125 2.34375,-1.75 1.25,-0.625 2.59375,-0.625 1,0 2.15625,0.25 1.15625,0.25 2.3125,0.90625 z m 23.9375,20.34375 v -14.3125 q -1.03125,-1.78125 -2.90625,-2.75 -1.875,-1 -4.125,-1 -2,0 -3.65625,0.75 -1.65625,0.71875 -2.875,2.1875 -1.1875,1.46875 -1.875,3.65625 -0.65625,2.1875 -0.65625,5.125 0,2.65625 0.75,4.8125 0.78125,2.15625 1.96875,3.6875 1.1875,1.5 2.59375,2.34375 1.4375,0.8125 2.71875,0.8125 1.0625,0 2.09375,-0.40625 1.03125,-0.4375 2.03125,-1.125 1.03125,-0.71875 2,-1.59375 0.96875,-0.90625 1.9375,-1.84375 z m 9.5625,5.875 q -1.4375,0.96875 -2.5625,1.65625 -1.09375,0.65625 -1.9375,1.0625 -0.8125,0.4375 -1.40625,0.625 -0.59375,0.21875 -1.03125,0.21875 -1.03125,0 -1.6875,-1.40625 -0.65625,-1.40625 -0.875,-4.8125 -1.1875,1.4375 -2.375,2.59375 -1.15625,1.15625 -2.40625,1.96875 -1.21875,0.78125 -2.59375,1.21875 -1.375,0.4375 -2.96875,0.4375 -1.75,0 -3.59375,-1 -1.84375,-1.03125 -3.40625,-2.9375 -1.53125,-1.90625 -2.53125,-4.65625 -0.96875,-2.75 -0.96875,-6.21875 0,-1.78125 0.46875,-3.6875 0.5,-1.90625 1.40625,-3.6875 0.90625,-1.78125 2.21875,-3.375 1.3125,-1.59375 2.9375,-2.78125 1.625,-1.21875 3.5625,-1.90625 1.9375,-0.6875 4.125,-0.6875 1.46875,0 2.90625,0.375 1.46875,0.34375 3.15625,1.59375 v -11.78125 q 0,-1.71875 -0.0937,-2.71875 -0.0937,-1.03125 -0.53125,-1.5625 -0.4375,-0.5625 -1.34375,-0.75 -0.90625,-0.21875 -2.5625,-0.34375 v -1.21875 q 2.5625,-0.34375 4.59375,-0.90625 2.03125,-0.59375 3.65625,-1.125 l 0.96875,0.9375 v 39.5625 q 0,1.09375 0.0312,1.875 0.0625,0.78125 0.15625,1.3125 0.0937,0.53125 0.21875,0.875 0.125,0.34375 0.3125,0.5625 0.28125,0.34375 1.0625,0.21875 0.8125,-0.15625 2.6875,-0.875 l 0.40625,1.34375 z m 22.3125,-6.21875 q 0,2.21875 -0.625,3.8125 -0.625,1.5625 -1.625,2.65625 -1,1.09375 -2.21875,1.75 -1.21875,0.65625 -2.40625,1 -1.1875,0.34375 -2.25,0.4375 -1.03125,0.125 -1.625,0.125 -1.5,0 -3.625,-0.5625 -2.09375,-0.5625 -4.1875,-1.71875 -0.21875,-0.0937 -0.3125,-1 -0.0625,-0.9375 -0.0312,-2.125 0.0625,-1.21875 0.1875,-2.4375 0.15625,-1.21875 0.375,-1.9375 l 1.34375,0.34375 q 0.0625,1.3125 0.6875,2.46875 0.625,1.15625 1.65625,2.03125 1.0625,0.875 2.4375,1.375 1.40625,0.5 3.03125,0.5 1.125,0 2.0625,-0.34375 0.9375,-0.375 1.625,-1.03125 0.6875,-0.65625 1.0625,-1.5625 0.375,-0.9375 0.375,-2.03125 0,-1.25 -0.6875,-2.21875 -0.65625,-0.96875 -1.75,-1.75 -1.09375,-0.8125 -2.5,-1.5 -1.375,-0.71875 -2.8125,-1.46875 -1.3125,-0.65625 -2.53125,-1.40625 -1.21875,-0.75 -2.1875,-1.6875 -0.9375,-0.9375 -1.53125,-2.09375 -0.5625,-1.15625 -0.5625,-2.65625 0,-1.9375 0.78125,-3.4375 0.78125,-1.53125 2.0625,-2.5625 1.3125,-1.03125 2.96875,-1.5625 1.6875,-0.5625 3.46875,-0.5625 0.96875,0 2.125,0.1875 1.1875,0.15625 2.3125,0.46875 1.15625,0.3125 2.15625,0.75 1,0.4375 1.625,1 0.1875,0.1875 0.0312,0.84375 -0.125,0.65625 -0.4375,1.4375 -0.28125,0.78125 -0.625,1.46875 -0.34375,0.6875 -0.53125,0.9375 l -1.21875,-0.25 q -1.5,-2.25 -3.125,-3.125 -1.59375,-0.90625 -3.125,-0.90625 -1.03125,0 -1.84375,0.34375 -0.8125,0.34375 -1.40625,0.90625 -0.5625,0.53125 -0.875,1.1875 -0.28125,0.65625 -0.28125,1.3125 0,1 0.59375,1.8125 0.59375,0.78125 1.5625,1.5 0.96875,0.6875 2.1875,1.34375 1.25,0.625 2.5625,1.3125 1.34375,0.6875 2.71875,1.46875 1.375,0.78125 2.46875,1.8125 1.09375,1 1.78125,2.3125 0.6875,1.28125 0.6875,3.03125 z"
   id="text4"
   aria-label="nassau records" /></svg>
