# Created by Kenney (www.kenney.nl)

mtllib polytope-ball-only.mtl

g mergedBlocks

v 1.425325 1.762866 -1
v 1.5 1.5 -1
v 1.404508 1.654508 -0.75
v 1.404508 1.345492 -0.75
v 1.425325 1.237134 -1
v 1.262866 1.5 -0.5746746
v 1.154508 1.75 -1.404508
v 1.404508 1.654508 -1.25
v 1.25 1.904508 -1.154508
v 1 1.925325 -1.262866
v 1.262866 1.5 -1.425325
v 1.154508 1.75 -0.5954915
v 1.25 1.904508 -0.8454915
v 1 1.925325 -0.7371345
v 0.75 1.095492 -0.8454915
v 0.75 1.095492 -1.154508
v 0.5746746 1.237134 -1
v 1 1 -1
v 1 1.074675 -1.262866
v 1 1.074675 -0.7371345
v 1 2 -1
v 1.154508 1.25 -0.5954915
v 1.25 1.095492 -0.8454915
v 1.154508 1.25 -1.404508
v 1.404508 1.345492 -1.25
v 1.25 1.095492 -1.154508
v 0.8454915 1.25 -1.404508
v 0.5954915 1.345492 -1.25
v 0.7371345 1.5 -1.425325
v 1 1.5 -0.5
v 0.8454915 1.25 -0.5954915
v 0.7371345 1.5 -0.5746746
v 0.75 1.904508 -1.154508
v 0.75 1.904508 -0.8454915
v 0.5746746 1.762866 -1
v 1 1.5 -1.5
v 0.5 1.5 -1
v 0.5954915 1.654508 -0.75
v 0.5954915 1.345492 -0.75
v 0.8454915 1.75 -0.5954915
v 0.5954915 1.654508 -1.25
v 0.8454915 1.75 -1.404508

vn 0.9435222 0.2680349 0.1947387
vn 0.9660217 0 0.2584611
vn 0.9107586 0.08941776 0.403142
vn 0.9107586 -0.08941776 0.403142
vn 0.9435222 -0.2680349 0.1947387
vn 0.7778675 0 0.6284283
vn 0.5076165 0.5628797 -0.6522974
vn 0.6522974 0.5076165 -0.5628797
vn 0.5628797 0.6522974 -0.5076165
vn 0.3150939 0.7487834 -0.5831288
vn 0.7487834 0.5831288 -0.3150939
vn 0.5831288 0.3150939 -0.7487834
vn 0.6522974 0.5076165 0.5628797
vn 0.5831288 0.3150939 0.7487834
vn 0.5076165 0.5628797 0.6522974
vn 0.5628797 0.6522974 0.5076165
vn 0.3150939 0.7487834 0.5831288
vn 0.7487834 0.5831288 0.3150939
vn -0.403142 -0.9107586 0.08941776
vn -0.403142 -0.9107586 -0.08941776
vn -0.6284283 -0.7778675 0
vn -0.2584611 -0.9660217 0
vn -0.1947387 -0.9435222 -0.2680349
vn -0.1947387 -0.9435222 0.2680349
vn 0.403142 0.9107586 -0.08941776
vn 0.403142 0.9107586 0.08941776
vn 0.2584611 0.9660217 0
vn 0.1947387 0.9435222 0.2680349
vn 0.1947387 0.9435222 -0.2680349
vn 0.6284283 0.7778675 0
vn 0.5076165 -0.5628797 0.6522974
vn 0.5628797 -0.6522974 0.5076165
vn 0.3150939 -0.7487834 0.5831288
vn 0.6522974 -0.5076165 0.5628797
vn 0.7487834 -0.5831288 0.3150939
vn 0.5831288 -0.3150939 0.7487834
vn 0.5076165 -0.5628797 -0.6522974
vn 0.6522974 -0.5076165 -0.5628797
vn 0.5831288 -0.3150939 -0.7487834
vn 0.5628797 -0.6522974 -0.5076165
vn 0.3150939 -0.7487834 -0.5831288
vn 0.7487834 -0.5831288 -0.3150939
vn -0.3150939 -0.7487834 -0.5831288
vn -0.5076165 -0.5628797 -0.6522974
vn -0.5628797 -0.6522974 -0.5076165
vn -0.6522974 -0.5076165 -0.5628797
vn -0.7487834 -0.5831288 -0.3150939
vn -0.5831288 -0.3150939 -0.7487834
vn 0 -0.2584611 0.9660217
vn -0.08941776 -0.403142 0.9107586
vn -0.2680349 -0.1947387 0.9435222
vn 0.08941776 -0.403142 0.9107586
vn 0 -0.6284283 0.7778675
vn 0.2680349 -0.1947387 0.9435222
vn -0.403142 0.9107586 -0.08941776
vn -0.403142 0.9107586 0.08941776
vn -0.6284283 0.7778675 0
vn -0.2584611 0.9660217 0
vn -0.1947387 0.9435222 -0.2680349
vn -0.1947387 0.9435222 0.2680349
vn -0.2680349 -0.1947387 -0.9435222
vn -0.08941776 -0.403142 -0.9107586
vn 0 -0.2584611 -0.9660217
vn 0.08941776 -0.403142 -0.9107586
vn 0 -0.6284283 -0.7778675
vn 0.2680349 -0.1947387 -0.9435222
vn -0.9660217 0 0.2584611
vn -0.9435222 0.2680349 0.1947387
vn -0.9107586 0.08941776 0.403142
vn -0.9107586 -0.08941776 0.403142
vn -0.9435222 -0.2680349 0.1947387
vn -0.7778675 0 0.6284283
vn -0.7487834 0.5831288 0.3150939
vn -0.5628797 0.6522974 0.5076165
vn -0.6522974 0.5076165 0.5628797
vn -0.5076165 0.5628797 0.6522974
vn -0.3150939 0.7487834 0.5831288
vn -0.5831288 0.3150939 0.7487834
vn 0.403142 -0.9107586 0.08941776
vn 0.403142 -0.9107586 -0.08941776
vn 0.2584611 -0.9660217 0
vn 0.1947387 -0.9435222 -0.2680349
vn 0.6284283 -0.7778675 0
vn 0.1947387 -0.9435222 0.2680349
vn 0.9107586 0.08941776 -0.403142
vn 0.9107586 -0.08941776 -0.403142
vn 0.9660217 0 -0.2584611
vn 0.9435222 0.2680349 -0.1947387
vn 0.9435222 -0.2680349 -0.1947387
vn 0.7778675 0 -0.6284283
vn -0.9107586 -0.08941776 -0.403142
vn -0.7778675 0 -0.6284283
vn -0.9107586 0.08941776 -0.403142
vn -0.9660217 0 -0.2584611
vn -0.9435222 0.2680349 -0.1947387
vn -0.9435222 -0.2680349 -0.1947387
vn 0.2680349 0.1947387 0.9435222
vn 0 0.2584611 0.9660217
vn 0.08941776 0.403142 0.9107586
vn -0.08941776 0.403142 0.9107586
vn -0.2680349 0.1947387 0.9435222
vn 0 0.6284283 0.7778675
vn -0.5628797 -0.6522974 0.5076165
vn -0.7487834 -0.5831288 0.3150939
vn -0.6522974 -0.5076165 0.5628797
vn -0.5076165 -0.5628797 0.6522974
vn -0.3150939 -0.7487834 0.5831288
vn -0.5831288 -0.3150939 0.7487834
vn -0.08941776 0.403142 -0.9107586
vn 0.08941776 0.403142 -0.9107586
vn 0 0.6284283 -0.7778675
vn 0 0.2584611 -0.9660217
vn -0.2680349 0.1947387 -0.9435222
vn 0.2680349 0.1947387 -0.9435222
vn -0.5076165 0.5628797 -0.6522974
vn -0.3150939 0.7487834 -0.5831288
vn -0.5628797 0.6522974 -0.5076165
vn -0.6522974 0.5076165 -0.5628797
vn -0.7487834 0.5831288 -0.3150939
vn -0.5831288 0.3150939 -0.7487834

vt 1 1.762866
vt 1 1.5
vt 0.75 1.654508
vt 0.75 1.345492
vt 1 1.237134
vt 0.5746746 1.5
vt -1.154508 -1.404508
vt -1.404508 -1.25
vt -1.25 -1.154508
vt -1 -1.262866
vt 1.154508 1.904508
vt 1.25 1.654508
vt -1.262866 1.5
vt -1.404508 1.654508
vt -1.154508 1.75
vt 1.404508 1.654508
vt 1.262866 1.5
vt 1.154508 1.75
vt -1.404508 -0.75
vt -1.154508 -0.5954915
vt -1.25 -0.8454915
vt -1 -0.7371345
vt 0.8454915 1.904508
vt -0.75 0.8454915
vt -0.75 1.154508
vt -0.5746746 1
vt -1 1
vt -1 1.262866
vt -1 0.7371345
vt -1 -1
vt -1.425325 -1
vt -1.154508 0.5954915
vt -1.25 0.8454915
vt 1.25 1.095492
vt 1.154508 1.25
vt 1.404508 1.345492
vt 0.8454915 1.095492
vt -1.154508 1.25
vt -1.404508 1.345492
vt -1.25 1.095492
vt -1.25 1.154508
vt -1.154508 1.404508
vt 1.25 1.345492
vt 1.154508 1.095492
vt -0.8454915 1.404508
vt -0.75 1.095492
vt -0.8454915 1.25
vt -0.5954915 1.345492
vt -1.154508 1.095492
vt -1.25 1.345492
vt -1 1.237134
vt -0.7371345 1.5
vt 0.8454915 1.25
vt 0.7371345 1.5
vt 1 1.074675
vt -0.75 -1.154508
vt -0.75 -0.8454915
vt -0.5746746 -1
vt -1 1.5
vt -1 1.074675
vt -1 1.762866
vt -0.75 1.654508
vt -0.75 1.345492
vt -0.5746746 1.5
vt -0.8454915 1.904508
vt -0.8454915 -0.5954915
vt -0.5954915 -0.75
vt 0.5954915 1.654508
vt 0.8454915 1.75
vt -1.425325 1
vt 1.425325 1.5
vt -1.425325 1.5
vt -1.25 1.654508
vt 1 1.925325
vt -0.8454915 1.095492
vt 0.75 1.095492
vt 0.5954915 1.345492
vt -0.8454915 0.5954915
vt -0.8454915 1.75
vt -1 1.925325
vt -0.8454915 -1.404508
vt -0.5954915 -1.25
vt -1.154508 1.904508
vt -0.5954915 1.654508

usemtl thrust(Clone)

f 3/3/3 2/2/2 1/1/1
f 4/4/4 2/2/2 3/3/3
f 4/4/4 5/5/5 2/2/2
f 6/6/6 4/4/4 3/3/3
f 9/9/9 8/8/8 7/7/7
f 10/10/10 9/9/9 7/7/7
f 1/1/11 8/12/8 9/11/9
f 7/15/7 8/14/8 11/13/12
f 12/18/15 6/17/14 3/16/13
f 13/21/16 12/20/15 3/19/13
f 14/22/17 12/20/15 13/21/16
f 3/3/13 1/1/18 13/23/16
f 17/26/21 16/25/20 15/24/19
f 16/25/20 18/27/22 15/24/19
f 16/25/20 19/28/23 18/27/22
f 15/24/19 18/27/22 20/29/24
f 21/30/27 13/21/26 9/9/25
f 14/22/28 13/21/26 21/30/27
f 21/30/27 9/9/25 10/10/29
f 13/21/26 1/31/30 9/9/25
f 20/29/33 23/33/32 22/32/31
f 4/36/34 22/35/31 23/34/32
f 4/4/34 23/37/32 5/5/35
f 6/17/36 22/35/31 4/36/34
f 11/13/39 25/39/38 24/38/37
f 25/39/38 26/40/40 24/38/37
f 19/28/41 24/42/37 26/41/40
f 5/5/42 26/44/40 25/43/38
f 16/25/45 27/45/44 19/28/43
f 28/48/46 27/47/44 16/46/45
f 17/51/47 28/50/46 16/49/45
f 29/52/48 27/47/44 28/48/46
f 32/54/51 31/53/50 30/2/49
f 30/2/49 31/53/50 22/35/52
f 31/53/50 20/55/53 22/35/52
f 30/2/49 22/35/52 6/17/54
f 35/58/57 34/57/56 33/56/55
f 34/57/56 21/30/58 33/56/55
f 33/56/55 21/30/58 10/10/59
f 34/57/56 14/22/60 21/30/58
f 36/59/63 27/47/62 29/52/61
f 36/59/63 24/38/64 27/47/62
f 24/38/64 19/60/65 27/47/62
f 11/13/66 24/38/64 36/59/63
f 38/62/69 35/61/68 37/59/67
f 38/62/69 37/59/67 39/63/70
f 39/63/70 37/59/67 17/51/71
f 32/64/72 38/62/69 39/63/70
f 38/62/75 34/65/74 35/61/73
f 34/57/74 38/67/75 40/66/76
f 34/57/74 40/66/76 14/22/77
f 40/69/76 38/68/75 32/54/78
f 18/27/81 26/41/80 23/33/79
f 19/28/82 26/41/80 18/27/81
f 26/41/80 5/70/83 23/33/79
f 18/27/81 23/33/79 20/29/84
f 2/2/87 25/43/86 8/12/85
f 2/2/87 8/12/85 1/1/88
f 5/5/89 25/43/86 2/2/87
f 25/43/86 11/71/90 8/12/85
f 41/73/93 29/72/92 28/50/91
f 37/59/94 41/73/93 28/50/91
f 35/61/95 41/73/93 37/59/94
f 37/59/94 28/50/91 17/51/96
f 12/18/99 30/2/98 6/17/97
f 40/69/100 30/2/98 12/18/99
f 40/69/100 32/54/101 30/2/98
f 14/74/102 40/69/100 12/18/99
f 39/63/105 17/51/104 15/75/103
f 39/77/105 15/76/103 31/53/106
f 15/24/103 20/29/107 31/78/106
f 32/54/108 39/77/105 31/53/106
f 10/80/111 7/15/110 42/79/109
f 7/15/110 36/59/112 42/79/109
f 42/79/109 36/59/112 29/52/113
f 7/15/110 11/13/114 36/59/112
f 33/56/117 10/10/116 42/81/115
f 33/56/117 42/81/115 41/82/118
f 35/61/119 33/83/117 41/73/118
f 42/79/115 29/52/120 41/84/118

