<?xml version="1.0" encoding="UTF-8" standalone="no"?>
<!-- Created with Inkscape (http://www.inkscape.org/) -->

<svg
   width="1024"
   height="768"
   viewBox="0 0 1024 768"
   version="1.1"
   id="svg1"
   sodipodi:docname="plentomatic.svg"
   inkscape:version="1.3 (0e150ed6c4, 2023-07-21)"
   xmlns:inkscape="http://www.inkscape.org/namespaces/inkscape"
   xmlns:sodipodi="http://sodipodi.sourceforge.net/DTD/sodipodi-0.dtd"
   xmlns="http://www.w3.org/2000/svg"
   xmlns:svg="http://www.w3.org/2000/svg">
  <sodipodi:namedview
     id="namedview1"
     pagecolor="#505050"
     bordercolor="#eeeeee"
     borderopacity="1"
     inkscape:showpageshadow="0"
     inkscape:pageopacity="0"
     inkscape:pagecheckerboard="0"
     inkscape:deskcolor="#505050"
     inkscape:document-units="px"
     inkscape:zoom="0.74853882"
     inkscape:cx="88.17178"
     inkscape:cy="-8.6835844"
     inkscape:window-width="1920"
     inkscape:window-height="1009"
     inkscape:window-x="1912"
     inkscape:window-y="-8"
     inkscape:window-maximized="1"
     inkscape:current-layer="layer1" />
  <defs
     id="defs1">
    <rect
       x="336.2952"
       y="-83.129151"
       width="0"
       height="27.394834"
       id="rect2" />
    <rect
       x="214.43542"
       y="175.7048"
       width="698.09593"
       height="93.520302"
       id="rect1" />
    <rect
       x="214.43542"
       y="175.7048"
       width="60.457574"
       height="86.907756"
       id="rect1-5" />
  </defs>
  <g
     inkscape:label="Ebene 1"
     inkscape:groupmode="layer"
     id="layer1">
    <text
       xml:space="preserve"
       id="text1"
       style="font-size:64px;white-space:pre;shape-inside:url(#rect1);display:inline;fill:#83c1fe;fill-opacity:1"
       transform="translate(-5.956291,23.679271)"><tspan
         x="214.43555"
         y="234.09422"
         id="tspan4"><tspan
           style="font-family:Cambria;-inkscape-font-specification:Cambria"
           id="tspan1">your job is    ur business.</tspan></tspan></text>
    <path
       id="text1-7"
       style="font-size:64px;font-family:Cambria;-inkscape-font-specification:Cambria;white-space:pre;fill:#83c1fe;stroke-width:1.60922"
       d="m 517.11704,147.68554 v 2.46412 c 1.54216,0.43582 2.63175,0.83813 3.26873,1.20691 0.63697,0.33525 1.13985,0.80461 1.50864,1.40807 0.4023,0.56994 0.68726,1.3913 0.8549,2.46412 0.1676,1.03928 0.25144,2.71555 0.25144,5.02881 v 43.49921 c 0,2.48088 -0.11735,4.32477 -0.35202,5.53169 -0.20115,1.20691 -0.65375,2.14562 -1.35778,2.81613 -0.7515,0.71335 -0.84284,0.81087 -1.47721,1.13777 -1.27459,0.42515 -2.49663,0.95544 -3.65847,1.60608 -3.35253,1.84389 -6.00105,4.67679 -7.94552,8.49869 -1.91095,3.82189 -2.86642,8.49869 -2.86642,14.03038 0,8.0461 1.82714,14.13096 5.4814,18.25458 3.6878,4.09009 9.01834,6.13515 15.99162,6.13515 4.62651,0 8.6328,-0.93871 12.01886,-2.81613 3.38607,-1.91095 6.00105,-4.77737 7.84494,-8.59927 1.84389,-3.8219 2.76585,-8.51546 2.76585,-14.08067 0,-7.81141 -1.84389,-13.79571 -5.53169,-17.95285 -2.19289,-2.49193 -5.00696,-4.23555 -8.43268,-5.24569 -1.24826,-0.66166 -1.30563,-1.26082 -1.76952,-1.92351 -0.43582,-0.70404 -0.77109,-1.64274 -1.00576,-2.81614 -0.20115,-1.17339 -0.30173,-2.74907 -0.30173,-4.72708 v -16.69565 c 2.04505,0.13405 4.92824,0.20115 8.64956,0.20115 3.31901,0 6.48716,-0.38553 9.50445,-1.15662 3.01728,-0.77109 5.63227,-2.04505 7.84494,-3.8219 2.21268,-1.77685 3.92247,-4.05657 5.12939,-6.83918 1.20691,-2.78261 1.81037,-5.91723 1.81037,-9.40388 0,-6.13513 -1.92772,-10.69459 -5.78313,-13.67836 -3.8219,-3.01729 -9.65533,-4.52593 -17.50026,-4.52593 z m 22.78051,4.42535 c 2.21268,0 4.25772,0.25144 6.13515,0.75432 1.87743,0.46937 3.48665,1.29073 4.82766,2.46412 1.37454,1.1734 2.44735,2.73233 3.21843,4.6768 0.77109,1.91094 1.15663,4.308 1.15663,7.19119 0,3.78838 -0.65374,6.83919 -1.96123,9.15244 -1.3075,2.27973 -3.20168,3.92247 -5.68256,4.92823 -2.44735,0.97225 -5.56521,1.45836 -9.35359,1.45836 h -5.83342 v -30.4243 c 1.67628,-0.13405 4.17391,-0.20116 7.49293,-0.20116 z m -12.47774,63.89419 c 2.41383,0 4.55946,0.77108 6.43687,2.31325 1.87743,1.50864 3.35256,3.88895 4.42536,7.14091 1.10634,3.25196 1.65951,7.34206 1.65951,12.2703 0,2.6485 -0.21791,5.19644 -0.65375,7.64379 -0.43582,2.41383 -1.15663,4.5427 -2.16239,6.38659 -0.97222,1.84389 -2.24619,3.31901 -3.82189,4.42535 -1.57569,1.07282 -3.48665,1.60922 -5.73285,1.60922 -4.09009,0 -7.24149,-1.84391 -9.45416,-5.53169 -2.17914,-3.72132 -3.26873,-9.03511 -3.26873,-15.94133 0,-6.50392 1.07282,-11.51598 3.21844,-15.03614 2.17916,-3.52017 5.29702,-5.28025 9.35359,-5.28025 z" />
    <text
       xml:space="preserve"
       id="text2"
       style="font-size:9.6px;white-space:pre;shape-inside:url(#rect2);display:inline;fill:#000000" />
    <rect
       style="fill:#83c1fe;fill-opacity:1;stroke-width:0.427536"
       id="rect6"
       width="156.35225"
       height="150.96077"
       x="44.038177"
       y="364.04648" />
    <rect
       style="fill:#83c1fe;fill-opacity:1;stroke-width:0.678813"
       id="rect6-0"
       width="432.41388"
       height="137.60141"
       x="456.46829"
       y="328.30472" />
    <path
       id="text1-7-6"
       style="font-size:64px;font-family:Cambria;-inkscape-font-specification:Cambria;white-space:pre;fill:#83c1fe;stroke-width:1.60922"
       d="m 92.77371,20 v 2.46412 c 1.54216,0.43582 2.63175,0.83813 3.26873,1.20691 0.63697,0.33525 1.13985,0.80461 1.50864,1.40807 0.4023,0.56994 0.68726,1.3913 0.8549,2.46412 0.1676,1.03928 0.25144,2.71555 0.25144,5.02881 v 43.49921 c 0,2.48088 -0.11735,4.32477 -0.35202,5.53169 -0.20115,1.20691 -0.65375,2.14562 -1.35778,2.81613 -0.7515,0.71335 -0.84284,0.81087 -1.47721,1.13777 -1.27459,0.42515 -2.49663,0.95544 -3.65847,1.60608 C 88.45941,89.0068 85.81089,91.8397 83.86642,95.6616 81.95547,99.48349 81,104.16029 81,109.69198 c 0,8.0461 1.82714,14.13096 5.4814,18.25458 3.6878,4.09009 9.01834,6.13515 15.99162,6.13515 4.62651,0 8.6328,-0.93871 12.01886,-2.81613 3.38607,-1.91095 6.00105,-4.77737 7.84494,-8.59927 1.84389,-3.8219 2.76585,-8.51546 2.76585,-14.08067 0,-7.81141 -1.84389,-13.79571 -5.53169,-17.95285 -2.19289,-2.49193 -5.00696,-4.23555 -8.43268,-5.24569 -1.24826,-0.66166 -1.30563,-1.26082 -1.76952,-1.92351 -0.43582,-0.70404 -0.77109,-1.64274 -1.00576,-2.81614 -0.20115,-1.17339 -0.30173,-2.74907 -0.30173,-4.72708 V 59.22472 c 2.04505,0.13405 4.92824,0.20115 8.64956,0.20115 3.31901,0 6.48716,-0.38553 9.50445,-1.15662 3.01728,-0.77109 5.63227,-2.04505 7.84494,-3.8219 2.21268,-1.77685 3.92247,-4.05657 5.12939,-6.83918 C 140.39654,44.82556 141,41.69094 141,38.20429 141,32.06916 139.07228,27.5097 135.21687,24.52593 131.39497,21.50864 125.56154,20 117.71661,20 Z m 22.78051,4.42535 c 2.21268,0 4.25772,0.25144 6.13515,0.75432 1.87743,0.46937 3.48665,1.29073 4.82766,2.46412 1.37454,1.1734 2.44735,2.73233 3.21843,4.6768 0.77109,1.91094 1.15663,4.308 1.15663,7.19119 0,3.78838 -0.65374,6.83919 -1.96123,9.15244 -1.3075,2.27973 -3.20168,3.92247 -5.68256,4.92823 -2.44735,0.97225 -5.56521,1.45836 -9.35359,1.45836 h -5.83342 v -30.4243 c 1.67628,-0.13405 4.17391,-0.20116 7.49293,-0.20116 z m -12.47774,63.89419 c 2.41383,0 4.55946,0.77108 6.43687,2.31325 1.87743,1.50864 3.35256,3.88895 4.42536,7.14091 1.10634,3.25196 1.65951,7.34206 1.65951,12.2703 0,2.6485 -0.21791,5.19644 -0.65375,7.64379 -0.43582,2.41383 -1.15663,4.5427 -2.16239,6.38659 -0.97222,1.84389 -2.24619,3.31901 -3.82189,4.42535 -1.57569,1.07282 -3.48665,1.60922 -5.73285,1.60922 -4.09009,0 -7.24149,-1.84391 -9.45416,-5.53169 -2.17914,-3.72132 -3.26873,-9.03511 -3.26873,-15.94133 0,-6.50392 1.07282,-11.51598 3.21844,-15.03614 2.17916,-3.52017 5.29702,-5.28025 9.35359,-5.28025 z" />
    <path
       id="text1-7-6-2"
       style="font-size:64px;font-family:Cambria;-inkscape-font-specification:Cambria;white-space:pre;fill:#000033;fill-opacity:1;stroke-width:1.60922"
       d="m 127.74248,384.26529 v 2.46412 c 1.54216,0.43582 2.63175,0.83813 3.26873,1.20691 0.63697,0.33525 1.13985,0.80461 1.50864,1.40807 0.4023,0.56994 0.68726,1.3913 0.8549,2.46412 0.1676,1.03928 0.25144,2.71555 0.25144,5.02881 v 43.49921 c 0,2.48088 -0.11735,4.32477 -0.35202,5.53169 -0.20115,1.20691 -0.65375,2.14562 -1.35778,2.81613 -0.7515,0.71335 -0.84284,0.81087 -1.47721,1.13777 -1.27459,0.42515 -2.49663,0.95544 -3.65847,1.60608 -3.35253,1.84389 -6.00105,4.67679 -7.94552,8.49869 -1.91095,3.82189 -2.86642,8.49869 -2.86642,14.03038 0,8.0461 1.82714,14.13096 5.4814,18.25458 3.6878,4.09009 9.01834,6.13515 15.99162,6.13515 4.62651,0 8.6328,-0.93871 12.01886,-2.81613 3.38607,-1.91095 6.00105,-4.77737 7.84494,-8.59927 1.84389,-3.8219 2.76585,-8.51546 2.76585,-14.08067 0,-7.81141 -1.84389,-13.79571 -5.53169,-17.95285 -2.19289,-2.49193 -5.00696,-4.23555 -8.43268,-5.24569 -1.24826,-0.66166 -1.30563,-1.26082 -1.76952,-1.92351 -0.43582,-0.70404 -0.77109,-1.64274 -1.00576,-2.81614 -0.20115,-1.17339 -0.30173,-2.74907 -0.30173,-4.72708 v -16.69565 c 2.04505,0.13405 4.92824,0.20115 8.64956,0.20115 3.31901,0 6.48716,-0.38553 9.50445,-1.15662 3.01728,-0.77109 5.63227,-2.04505 7.84494,-3.8219 2.21268,-1.77685 3.92247,-4.05657 5.12939,-6.83918 1.20691,-2.78261 1.81037,-5.91723 1.81037,-9.40388 0,-6.13513 -1.92772,-10.69459 -5.78313,-13.67836 -3.8219,-3.01729 -9.65533,-4.52593 -17.50026,-4.52593 z m 22.78051,4.42535 c 2.21268,0 4.25772,0.25144 6.13515,0.75432 1.87743,0.46937 3.48665,1.29073 4.82766,2.46412 1.37454,1.1734 2.44735,2.73233 3.21843,4.6768 0.77109,1.91094 1.15663,4.308 1.15663,7.19119 0,3.78838 -0.65374,6.83919 -1.96123,9.15244 -1.3075,2.27973 -3.20168,3.92247 -5.68256,4.92823 -2.44735,0.97225 -5.56521,1.45836 -9.35359,1.45836 h -5.83342 v -30.4243 c 1.67628,-0.13405 4.17391,-0.20116 7.49293,-0.20116 z m -12.47774,63.89419 c 2.41383,0 4.55946,0.77108 6.43687,2.31325 1.87743,1.50864 3.35256,3.88895 4.42536,7.14091 1.10634,3.25196 1.65951,7.34206 1.65951,12.2703 0,2.6485 -0.21791,5.19644 -0.65375,7.64379 -0.43582,2.41383 -1.15663,4.5427 -2.16239,6.38659 -0.97222,1.84389 -2.24619,3.31901 -3.82189,4.42535 -1.57569,1.07282 -3.48665,1.60922 -5.73285,1.60922 -4.09009,0 -7.24149,-1.84391 -9.45416,-5.53169 -2.17914,-3.72132 -3.26873,-9.03511 -3.26873,-15.94133 0,-6.50392 1.07282,-11.51598 3.21844,-15.03614 2.17916,-3.52017 5.29702,-5.28025 9.35359,-5.28025 z" />
    <text
       xml:space="preserve"
       style="font-style:normal;font-variant:normal;font-weight:normal;font-stretch:normal;font-size:64px;font-family:Cambria;-inkscape-font-specification:Cambria;fill:#000033;fill-opacity:1"
       x="502.31195"
       y="430.17142"
       id="text6"><tspan
         sodipodi:role="line"
         id="tspan6"
         x="502.31195"
         y="430.17142">plent-o-matic</tspan></text>
  </g>
</svg>
