# Created by Kenney (www.kenney.nl)

mtllib car8.mtl

g mergedBlocks

v 1 0.1 2.54
v 1 0.1 2.5
v 0.9 0.1 2.54
v 0.9 0.1 2.5
v 0.9 0.2 2.5
v 0.9 0.2 2.54
v 1 0.2 2.5
v 1 0.2 2.54
v 0.1 0.1 2.54
v 0.1 0.1 2.5
v 0 0.1 2.54
v 0 0.1 2.5
v 0 0.2 2.5
v 0 0.2 2.54
v 0.1 0.2 2.5
v 0.1 0.2 2.54
v 0.1 0.3 0.6
v -0.1 0.3 0.6
v 0.2 0.4 0.6
v -0.2 0.4 0.6
v 0.2 0.5 0.6
v -0.2 0.5 0.6
v -0.2 0.5 -0.4
v 0.2 0.5 -0.4
v -0.5 0.1 -0.5
v -0.5 0.25 -0.5
v -0.5 0.1 0.5
v -0.5 0.25 0.5
v 1.1 1.804779E-16 0.5
v 1.1 1.804779E-16 -0.5
v -0.1 2.699111E-17 0.5
v -0.1 2.699111E-17 -0.5
v 1.5 0.25 -0.5
v 1.5 0.1 -0.5
v 1.5 0.25 0.5
v 1.5 0.1 0.5
v 1.1 0.3 0.6
v 0.9 0.3 0.6
v 1.2 0.4 0.6
v 0.8 0.4 0.6
v 1.2 0.5 0.6
v 0.8 0.5 0.6
v 0.8 0.5 -0.4
v 1.2 0.5 -0.4
v 1.5 0.14 1.219698
v 1.5 0.14 0.5000001
v 1.1 2.52669E-16 1.219698
v 1.1 2.52669E-16 0.5000001
v -0.5 0.14 0.5000001
v -0.5 0.385 0.5000001
v -0.5 0.14 1.219698
v -0.5 0.385 1.219698
v -0.1 3.778755E-17 1.219698
v -0.1 3.778755E-17 0.5000001
v 1.5 0.385 0.5000001
v 1.5 0.385 1.219698
v 0.1 0.7 -0.4
v 0.2 0.6 -0.4
v 0.1 0.7 0.6
v 0.2 0.6 0.6
v -0.1 0.7 -0.4
v -0.1 0.7 0.6
v -0.2 0.6 -0.4
v -0.2 0.6 0.6
v -0.5 0.45 -0.5
v 1.5 0.45 -0.5
v -0.3 0.5 -0.5
v 1.3 0.5 -0.5
v 1.5 0.45 0.5
v -0.5 0.45 0.5
v 1.3 0.5 0.5
v -0.3 0.5 0.5
v 1.1 0.7 -0.4
v 1.2 0.6 -0.4
v 1.1 0.7 0.6
v 1.2 0.6 0.6
v 0.9 0.7 -0.4
v 0.9 0.7 0.6
v 0.8 0.6 -0.4
v 0.8 0.6 0.6
v -0.5 0.63 0.5000001
v 1.5 0.63 0.5000001
v -0.3 0.7 0.5000001
v 1.3 0.7 0.5000001
v 1.5 0.63 1.219698
v 1.3 0.7 1.219698
v -0.3 0.7 1.219698
v -0.5 0.63 1.219698
v 1.005 0.5 -0.42
v 0.9 0.6 -0.5
v 0.9 0.6 -0.34
v 1.11 0.6 -0.34
v 1.11 0.6 -0.5
v 1.005 0.7 -0.42
v 0.004999989 0.4999999 -0.42
v -0.1 0.6 -0.5
v -0.1 0.6 -0.34
v 0.11 0.6 -0.34
v 0.11 0.6 -0.5
v 0.004999995 0.6999999 -0.42
v 1.4234 0.468552 2.033848
v 1.4234 0.156086 2.033848
v 1.116734 0.3126855 2.495548
v 1.116734 0.2204859 2.495548
v -0.05404001 0.02681 2.033848
v -0.4234 0.156086 2.033848
v 0.1299596 0.1341431 2.495548
v -0.116734 0.2204859 2.495548
v -0.4234 0.468552 2.033848
v -0.116734 0.3126855 2.495548
v 0.006612837 0.3558569 2.495548
v -0.2387199 0.53319 2.033848
v 0.8700404 0.1341431 2.495548
v 0.9933872 0.3558569 2.495548
v 1.05404 0.02681 2.033848
v 1.23872 0.53319 2.033848

vn 0 -1 0
vn -1 0 0
vn 0 0 -1
vn 0 0 1
vn 1 0 0
vn 0 1 0
vn -0.7053456 -0.7053456 -0.07053456
vn 0.7053456 -0.7053456 -0.07053456
vn 0 -0.9805807 -0.1961161
vn 0.2425356 -0.9701425 0
vn -0.2425356 -0.9701425 0
vn 0.3303504 -0.9438583 0
vn -0.3303504 -0.9438583 0
vn 0.7071068 0.7071068 0
vn -0.7071068 0.7071068 0
vn 0.2425356 0.9701425 0
vn -0.2425356 0.9701425 0
vn 0.3303504 0.9438583 0
vn -0.3303504 0.9438583 0
vn -0.6896552 -0.7241379 0
vn 0.6896551 -0.724138 0
vn 0 -0.6246951 -0.7808688
vn 0 -0.6246951 0.7808688
vn 0 0.6246951 -0.7808688
vn -0.6896552 0.724138 0
vn 0 0.6246951 0.7808688
vn 0.6896552 0.724138 0
vn 0.9702275 0 0.2421954
vn 0.9522598 0 0.3052886
vn 0.8329933 0 0.5532829
vn -0.3252936 -0.9294104 0.1742994
vn -0.3116993 -0.8905695 0.3312543
vn -0.9522598 0 0.3052886
vn -0.9702275 0 0.2421954
vn -0.8329933 0 0.5532829
vn -0.2909125 0.8311787 0.4738269
vn -0.3091819 0.8833768 0.3522101
vn -0.3139322 0.8969492 0.3113338
vn -0.3227529 0.9221513 0.2132314
vn 0.9956031 0 0.09367218
vn -0.9956031 0 0.09367218
vn 0.3299426 -0.9426934 0.0496687
vn 0.3252936 -0.9294104 0.1742994
vn 0 0.9796489 0.2007188
vn 0 0.9649413 0.262466
vn 0 -0.9937636 0.1115081
vn 0 -0.9740262 0.2264354
vn 0.3116993 -0.8905695 0.3312543
vn 0.3227529 0.9221513 0.2132314
vn 0.3139322 0.8969492 0.3113338
vn 0.3091819 0.8833768 0.3522101
vn 0 -0.9994583 0.03291221
vn 0 0.9335107 0.3585496
vn -0.3299426 -0.9426934 0.0496687
vn 0.2909125 0.8311787 0.4738269

vt -1 -2.54
vt -1 -2.5
vt -0.9 -2.54
vt -0.9 -2.5
vt 2.5 0.1
vt 2.5 0.2
vt 2.54 0.1
vt 2.54 0.2
vt -0.9 0.1
vt -1 0.1
vt -0.9 0.2
vt -1 0.2
vt 1 0.1
vt 0.9 0.1
vt 1 0.2
vt 0.9 0.2
vt -2.5 0.2
vt -2.5 0.1
vt -2.54 0.2
vt -2.54 0.1
vt -1 2.5
vt -1 2.54
vt -0.9 2.5
vt -0.9 2.54
vt -0.1 -2.54
vt -0.1 -2.5
vt 0 -2.54
vt 0 -2.5
vt 0 0.1
vt -0.1 0.1
vt 0 0.2
vt -0.1 0.2
vt 0.1 0.1
vt 0.1 0.2
vt -0.1 2.5
vt -0.1 2.54
vt 0 2.5
vt 0 2.54
vt 0.1 0.3
vt -0.1 0.3
vt 0.2 0.4
vt -0.2 0.4
vt 0.2 0.5
vt -0.2 0.5
vt 0.6 0.4
vt -0.4 0.5
vt 0.6 0.5
vt 0.2 -0.6
vt 0.1 -0.6
vt -0.6 0.5
vt 0.4 0.5
vt -0.6 0.4
vt -0.2 -0.6
vt -0.1 -0.6
vt -0.5 0.1
vt -0.5 0.25
vt 0.5 0.1
vt 0.5 0.25
vt -1.1 -0.5
vt -1.1 0.5
vt 0.1 -0.5
vt 0.1 0.5
vt 0.1 2.699111E-17
vt -1.1 1.804779E-16
vt -1.5 0.1
vt -1.5 0.25
vt -1.5 -0.5
vt -1.5 0.5
vt 0.5 -0.5
vt 0.5 0.5
vt -0.1 2.699111E-17
vt 1.1 1.804779E-16
vt 1.5 0.1
vt 1.5 0.25
vt 1.1 0.3
vt 0.9 0.3
vt 1.2 0.4
vt 0.8 0.4
vt 1.2 0.5
vt 0.8 0.5
vt 0.6 0.3
vt -1.2 -0.6
vt -1.2 0.4
vt -1.1 -0.6
vt -0.8 0.4
vt -0.9 -0.6
vt -1.5 -1.219698
vt -1.5 -0.5000001
vt -1.1 -1.219698
vt -1.1 -0.5000001
vt 0.5000001 0.14
vt 0.5000001 0.385
vt 1.219698 0.14
vt 1.219698 0.385
vt 0.1 -1.219698
vt 0.1 -0.5000001
vt -0.5000001 0.385
vt -0.5000001 0.14
vt -1.219698 0.385
vt -1.219698 0.14
vt 0.5 -1.219698
vt 0.5 -0.5000001
vt 0.1 3.778755E-17
vt -1.1 2.52669E-16
vt 0.5 0.14
vt -1.5 0.14
vt 0.5 0.385
vt -1.5 0.385
vt -0.1 -0.4
vt -0.2 -0.4
vt -0.1 0.6
vt -0.2 0.6
vt 0.1 -0.4
vt 0.1 0.6
vt 0.2 -0.4
vt 0.2 0.6
vt -0.4 0.6
vt 0.6 0.6
vt 0.1 0.7
vt -0.1 0.7
vt 0.4 0.6
vt -0.6 0.6
vt 0.5 0.45
vt -1.5 0.45
vt 0.3 0.5
vt -1.3 0.5
vt 1.5 0.45
vt -0.5 0.45
vt 1.3 0.5
vt -0.3 0.5
vt -1.3 -0.5
vt 0.3 -0.5
vt -1.1 -0.4
vt -1.2 -0.4
vt -1.1 0.6
vt -1.2 0.6
vt -0.9 -0.4
vt -0.9 0.6
vt -0.8 -0.4
vt -0.8 0.6
vt -0.8 0.5
vt -1.2 0.5
vt -0.9 0.7
vt -1.1 0.7
vt 1.2 0.6
vt 0.8 0.6
vt 1.1 0.7
vt 0.9 0.7
vt 0.5 0.63
vt -1.5 0.63
vt 0.3 0.7
vt -1.3 0.7
vt -0.5000001 0.63
vt -1.219698 0.63
vt -1.3 0.5000001
vt -1.5 0.5000001
vt -1.3 1.219698
vt -1.5 1.219698
vt 0.3 0.5000001
vt 0.3 1.219698
vt 0.5 0.5000001
vt 0.5 1.219698
vt 0.5000001 0.63
vt 1.219698 0.63
vt -0.004999989 0.42
vt 0.1 0.5
vt 0.1 0.34
vt -0.11 0.34
vt -0.11 0.5
vt -0.004999989 0.4999999
vt -0.11 0.6
vt 0.1 0.6
vt 0.11 0.6
vt 0.004999989 0.4999999
vt -0.1 0.6
vt -0.004999995 0.6999999
vt 0.1 -0.5
vt -0.004999995 -0.42
vt 0.1 -0.34
vt 0.004999995 0.6999999
vt -0.11 -0.5
vt -0.11 -0.34
vt -2.033848 0.468552
vt -2.033848 0.156086
vt -2.495548 0.3126855
vt -2.495548 0.2204859
vt 0.05404001 -2.033848
vt 0.4234 -2.033848
vt -0.1299596 -2.495548
vt 0.116734 -2.495548
vt 2.033848 0.156086
vt 2.033848 0.468552
vt 2.495548 0.2204859
vt 2.495548 0.3126855
vt 0.116734 2.495548
vt 0.4234 2.033848
vt -0.006612837 2.495548
vt 0.2387199 2.033848
vt 0.1299596 0.1341431
vt -0.116734 0.2204859
vt 0.8700404 0.1341431
vt 1.116734 0.2204859
vt 1.116734 0.3126855
vt -0.116734 0.3126855
vt 0.9933872 0.3558569
vt 0.006612837 0.3558569
vt -1.4234 -2.033848
vt -1.05404 -2.033848
vt -1.23872 2.033848
vt -0.8700404 -2.495548
vt -1.116734 -2.495548
vt -1.4234 2.033848
vt -0.9933872 2.495548
vt -1.116734 2.495548

usemtl standardlights(Clone)

f 3/3/1 2/2/1 1/1/1
f 2/2/1 3/3/1 4/4/1
f 3/7/2 5/6/2 4/5/2
f 5/6/2 3/7/2 6/8/2
f 5/11/3 2/10/3 4/9/3
f 2/10/3 5/11/3 7/12/3
f 8/15/4 3/14/4 1/13/4
f 3/14/4 8/15/4 6/16/4
f 8/19/5 2/18/5 7/17/5
f 2/18/5 8/19/5 1/20/5
f 5/23/6 8/22/6 7/21/6
f 8/22/6 5/23/6 6/24/6
f 11/27/1 10/26/1 9/25/1
f 10/26/1 11/27/1 12/28/1
f 11/7/2 13/6/2 12/5/2
f 13/6/2 11/7/2 14/8/2
f 13/31/3 10/30/3 12/29/3
f 10/30/3 13/31/3 15/32/3
f 16/34/4 11/29/4 9/33/4
f 11/29/4 16/34/4 14/31/4
f 16/19/5 10/18/5 15/17/5
f 10/18/5 16/19/5 9/20/5
f 13/37/6 16/36/6 15/35/6
f 16/36/6 13/37/6 14/38/6

usemtl metalPurple(Clone)

f 19/41/4 18/40/4 17/39/4
f 18/40/4 19/41/4 20/42/4
f 20/42/4 19/41/4 21/43/4
f 20/42/4 21/43/4 22/44/4
f 22/47/2 23/46/2 20/45/2
f 23/41/7 18/49/7 20/48/7
f 19/52/5 24/51/5 21/50/5
f 17/54/8 24/42/8 19/53/8
f 17/54/9 23/41/9 24/42/9
f 23/41/9 17/54/9 18/49/9
f 27/57/2 26/56/2 25/55/2
f 26/56/2 27/57/2 28/58/2
f 31/61/1 30/60/1 29/59/1
f 30/60/1 31/61/1 32/62/1
f 35/56/5 34/57/5 33/58/5
f 34/57/5 35/56/5 36/55/5
f 25/57/3 30/64/3 32/63/3
f 30/64/3 25/57/3 34/65/3
f 34/65/3 25/57/3 26/58/3
f 34/65/3 26/58/3 33/66/3
f 29/59/10 34/68/10 36/67/10
f 34/68/10 29/59/10 30/60/10
f 27/69/11 32/62/11 31/61/11
f 32/62/11 27/69/11 25/70/11
f 29/72/4 27/55/4 31/71/4
f 27/55/4 29/72/4 36/73/4
f 27/55/4 36/73/4 35/74/4
f 27/55/4 35/74/4 28/56/4
f 39/77/4 38/76/4 37/75/4
f 38/76/4 39/77/4 40/78/4
f 40/78/4 39/77/4 41/79/4
f 40/78/4 41/79/4 42/80/4
f 42/47/2 43/46/2 40/45/2
f 43/46/7 38/81/7 40/45/7
f 39/52/5 44/51/5 41/50/5
f 37/84/8 44/83/8 39/82/8
f 37/84/9 43/85/9 44/83/9
f 43/85/9 37/84/9 38/86/9
f 47/89/12 46/88/12 45/87/12
f 46/88/12 47/89/12 48/90/12
f 51/93/2 50/92/2 49/91/2
f 50/92/2 51/93/2 52/94/2
f 53/95/1 48/90/1 47/89/1
f 48/90/1 53/95/1 54/96/1
f 56/99/5 46/98/5 55/97/5
f 46/98/5 56/99/5 45/100/5
f 51/101/13 54/96/13 53/95/13
f 54/96/13 51/101/13 49/102/13
f 49/105/3 48/104/3 54/103/3
f 48/104/3 49/105/3 46/106/3
f 46/106/3 49/105/3 50/107/3
f 46/106/3 50/107/3 55/108/3

usemtl _defaultMat(Clone)

f 59/111/14 58/110/14 57/109/14
f 58/110/14 59/111/14 60/112/14
f 61/113/6 59/111/6 57/109/6
f 59/111/6 61/113/6 62/114/6
f 64/116/15 61/113/15 63/115/15
f 61/113/15 64/116/15 62/114/15
f 22/47/2 63/117/2 23/46/2
f 63/117/2 22/47/2 64/118/2
f 63/116/3 24/44/3 23/43/3
f 24/44/3 63/116/3 58/112/3
f 58/112/3 63/116/3 61/119/3
f 58/112/3 61/119/3 57/120/3
f 60/122/5 24/51/5 58/121/5
f 24/51/5 60/122/5 21/50/5
f 60/116/4 22/44/4 21/43/4
f 22/44/4 60/116/4 64/112/4
f 64/112/4 60/116/4 59/119/4
f 64/112/4 59/119/4 62/120/4
f 65/123/3 33/66/3 26/58/3
f 33/66/3 65/123/3 66/124/3
f 66/124/3 65/123/3 67/125/3
f 66/124/3 67/125/3 68/126/3
f 69/127/4 28/56/4 35/74/4
f 28/56/4 69/127/4 70/128/4
f 70/128/4 69/127/4 71/129/4
f 70/128/4 71/129/4 72/130/4
f 71/126/16 66/67/16 68/131/16
f 66/67/16 71/126/16 69/68/16
f 67/132/6 71/126/6 68/131/6
f 71/126/6 67/132/6 72/125/6
f 70/70/17 67/132/17 65/69/17
f 67/132/17 70/70/17 72/125/17
f 69/128/5 33/58/5 66/123/5
f 33/58/5 69/128/5 35/56/5
f 28/58/2 65/128/2 26/56/2
f 65/128/2 28/58/2 70/123/2
f 75/135/14 74/134/14 73/133/14
f 74/134/14 75/135/14 76/136/14
f 77/137/6 75/135/6 73/133/6
f 75/135/6 77/137/6 78/138/6
f 80/140/15 77/137/15 79/139/15
f 77/137/15 80/140/15 78/138/15
f 42/47/2 79/117/2 43/46/2
f 79/117/2 42/47/2 80/118/2
f 79/140/3 44/142/3 43/141/3
f 44/142/3 79/140/3 74/136/3
f 74/136/3 79/140/3 77/143/3
f 74/136/3 77/143/3 73/144/3
f 76/122/5 44/51/5 74/121/5
f 44/51/5 76/122/5 41/50/5
f 76/145/4 42/80/4 41/79/4
f 42/80/4 76/145/4 80/146/4
f 80/146/4 76/145/4 75/147/4
f 80/146/4 75/147/4 78/148/4
f 81/149/3 55/108/3 50/107/3
f 55/108/3 81/149/3 82/150/3
f 82/150/3 81/149/3 83/151/3
f 82/150/3 83/151/3 84/152/3
f 85/154/5 55/97/5 82/153/5
f 55/97/5 85/154/5 56/99/5
f 86/157/18 82/156/18 84/155/18
f 82/156/18 86/157/18 85/158/18
f 83/159/6 86/157/6 84/155/6
f 86/157/6 83/159/6 87/160/6
f 88/162/19 83/159/19 81/161/19
f 83/159/19 88/162/19 87/160/19
f 52/94/2 81/163/2 50/92/2
f 81/163/2 52/94/2 88/164/2

usemtl thrust(Clone)

f 91/167/20 90/166/20 89/165/20
f 89/165/21 93/169/21 92/168/21
f 90/172/22 93/171/22 89/170/22
f 91/175/23 89/174/23 92/173/23
f 94/176/24 93/171/24 90/172/24
f 91/179/25 94/178/25 90/177/25
f 94/180/26 91/175/26 92/173/26
f 92/182/27 93/181/27 94/178/27
f 97/167/20 96/166/20 95/165/20
f 95/165/21 99/169/21 98/168/21
f 96/172/22 99/171/22 95/170/22
f 97/175/23 95/174/23 98/173/23
f 100/176/24 99/171/24 96/172/24
f 97/179/25 100/178/25 96/177/25
f 100/180/26 97/175/26 98/173/26
f 98/182/27 99/181/27 100/178/27

usemtl shield(Clone)

f 103/185/30 102/184/29 101/183/28
f 102/184/29 103/185/30 104/186/30
f 107/189/32 106/188/31 105/187/31
f 106/188/31 107/189/32 108/190/32
f 108/193/35 109/192/34 106/191/33
f 109/192/34 108/193/35 110/194/35
f 111/197/36 109/196/37 110/195/36
f 109/196/37 111/197/36 112/198/38
f 113/201/4 108/200/4 107/199/4
f 108/200/4 113/201/4 104/202/4
f 108/200/4 104/202/4 103/203/4
f 108/200/4 103/203/4 110/204/4
f 110/204/4 103/203/4 114/205/4
f 110/204/4 114/205/4 111/206/4
f 109/196/37 87/160/39 88/162/39
f 87/160/39 109/196/37 112/198/38
f 101/183/28 56/99/40 85/154/40
f 56/99/40 101/183/28 45/100/40
f 45/100/40 101/183/28 102/184/29
f 106/191/33 52/94/41 51/93/41
f 52/94/41 106/191/33 88/164/41
f 88/164/41 106/191/33 109/192/34
f 102/207/43 47/89/42 45/87/42
f 47/89/42 102/207/43 115/208/43
f 87/160/44 116/209/45 86/157/44
f 116/209/45 87/160/44 112/198/45
f 113/210/47 105/187/46 115/208/46
f 105/187/46 113/210/47 107/189/47
f 102/207/43 113/210/48 115/208/43
f 113/210/48 102/207/43 104/211/48
f 116/209/50 85/158/49 86/157/49
f 85/158/49 116/209/50 101/212/51
f 115/208/46 53/95/52 47/89/52
f 53/95/52 115/208/46 105/187/46
f 116/209/45 111/197/53 114/213/53
f 111/197/53 116/209/45 112/198/45
f 105/187/31 51/101/54 53/95/54
f 51/101/54 105/187/31 106/188/31
f 101/212/51 114/213/55 103/214/55
f 114/213/55 101/212/51 116/209/50

